<svg id="Calque_1" data-name="Calque 1" xmlns="http://www.w3.org/2000/svg" viewBox="0 0 430.01 80.47"><defs><style>.cls-1{fill:#f0e512;}.cls-2{fill:#71c7db;}</style></defs><path class="cls-1" d="M60.94,61.56S48.36,64,30.42,61.62c-16.1-2.17-18-8.52-18-8.52S53.77,49.71,60.94,61.56Z"/><path class="cls-1" d="M14,37.06A34.55,34.55,0,0,0,30.26,47.72c10.11,3.19,20,1.12,31.91,11.56C62.17,59.28,50.13,31.71,14,37.06Z"/><path class="cls-1" d="M26.9,12.91S27.27,25.44,40.17,33,59.58,49.1,64,57.21C64,57.21,69.12,24.89,26.9,12.91Z"/><path class="cls-2" d="M59.16,0a22.63,22.63,0,0,0-5,15.12C54.74,24,68.62,34.53,66.59,57.21c0,0,9.16-13.89,9.16-28.73S59.16,0,59.16,0Z"/><path class="cls-2" d="M93.08,12a30.69,30.69,0,0,0-12.35,16.5C77,40,80.73,42.93,69.86,58.05c0,0,19.93-11.95,23.81-26.7S93.08,12,93.08,12Z"/><path class="cls-2" d="M112.26,33.18A31.1,31.1,0,0,0,94.93,41.3C86.63,48.86,83.31,54,71.88,60.6,71.88,60.6,108.75,56.41,112.26,33.18Z"/><path class="cls-2" d="M0,51.39S13.44,70,40,70c15.64,0,25.65-3,37.79-6.81,7.91-2.48,17.25-5.47,27.79-5.47,13.26,0,25.08,5.69,25.07,13.15-5.39-5.22-11.67-6.94-24.53-6.88C88.58,64,62.05,77.72,40.5,77.72,18.24,77.72,1,61.88,0,51.39Z"/><path class="cls-1" d="M128.78,72.92c-1.81-3.21-8.52-6.44-19.73-6.44-20,0-46.31,13.53-62,14,0,0,22.58.77,39.81-5.07C103.8,69.63,122.54,70.62,128.78,72.92Z"/><path class="cls-2" d="M177.9,44.16c5.81-5.84,8-7.65,8.69-7.62.34,0,.27.5-.15.91-2.51,2.48-7.05,7.51-7.24,11.13,0,.72.18,1.46,1.07,1.5s3.57-1.74,4.44-2.28c.72-.44,2.87-1.78,2.92-2.65,0-.53-.46-.65-.86-.72,1.73-2.67,6.09-8.1,6.25-11.18.07-1.4-.63-3.18-2.32-3.26-2.62-.14-10.28,6.66-12.17,8.64L163.25,54.56c-2.1.28-4.33.21-6.44.59-.75.15-1.13.71-1.61,1.27-.79.92-3.26,3.5-3.32,4.61,0,.87.79,1,1.49,1.09,1.33.07,2.76-.63,4-.95l1.12-.43a55.86,55.86,0,0,1,13.15,2c9.61,2.48,9.41,2.38,12.74-.54l2.76-2.42c-7.34-2.12-11.56-3.17-19.7-5.14Z"/><path class="cls-2" d="M195.39,58.27c-1.62,0-3.3-.63-3.14-2.47l.1-1.06c9.75-3.05,12.24-6.62,12.24-9,0-1.94-2-2.33-3.66-2.33-6.6,0-14,6.44-13.76,12.77.1,3.19,1.83,6.34,5.53,6.34,5,0,10.62-4.55,13.71-8L206,52.71C203.27,54.74,199,58.27,195.39,58.27Zm4.12-12a.49.49,0,0,1,.61.53c0,.82-3,4.16-7.47,5.61A11,11,0,0,1,199.51,46.23Z"/><path class="cls-2" d="M243.92,29.1a49.68,49.68,0,0,0-13.12,1.64c-1.36.38-2.82.75-3.7,1.93-.78,1-3.61,4.64-3.61,5.76,0,.42.49.47.78.47,1.46,0,8.24-3,16.77-3.14l-7.75,9.84c-2,.61-7.8,1.88-7.8,4.6,0,1.45,1,2.3,2.19,3-1.17,2-4.63,7.08-4.63,9.14A1.49,1.49,0,0,0,224.71,64c1.22,0,2.24-1.36,2.88-2.21,1.26-1.64,2.48-3.18,2.48-3.79s-.49-.75-.92-.85l2-3.18c15.61,1.68,28.24-5.35,28.24-15.33C259.38,32.85,256,29.1,243.92,29.1Zm-3.41,19.83a15.7,15.7,0,0,1-5-.47l1.08-1.54c.78-.52,4.92-.75,4.92-1.69s-2-.24-3.8-.24l5.12-6.79a4.39,4.39,0,0,0,1.07-2.86c2.24,0,11.41.56,11.95,3.42S250.06,48.42,240.51,48.93Z"/><path class="cls-2" d="M429.63,53.9c-2.05,1.36-4.77,3.75-6.78,3.75-.76,0-1.48-.33-1.48-1.12,0-2.21,4.15-5.49,4.15-7a1.88,1.88,0,0,0-1.38-1.92c.43-.14,1.67-.61,1.67-1.17a2.92,2.92,0,0,0-3.1-2.25c-4.63.12-14,4.33-16.91,9.13L404,54.84c-.86.7-3,2.34-4.11,2.34a.88.88,0,0,1-.86-.84c0-3.24,5.87-6.8,5.87-8.63a11.07,11.07,0,0,0-.71-2.53c-.29-.65-.58-.89-.77-.89-1.38,0-10.16,5.77-14,10.55-.19.23-.62.66-.95.66a.53.53,0,0,1-.53-.52c0-1.13,6-5.86,6-7.69,0-.28.23-.94-2.63-1a2.42,2.42,0,0,0-1.86.56,18.61,18.61,0,0,0-5,7.09h0c-2.05,1.36-4.77,3.75-6.78,3.75-.76,0-1.47-.33-1.47-1.12,0-2.21,4.15-5.49,4.15-7A1.88,1.88,0,0,0,379,47.62c.43-.14,1.67-.61,1.67-1.17a2.91,2.91,0,0,0-3.1-2.25c-5,.13-15.8,5.13-17.52,10.45-2,1.61-4.7,3.47-6.77,3.47-1.28,0-2-.94-2.38-2a5.14,5.14,0,0,1,.33-3.23c10.36-9.84,11.6-14,11.93-18.42.05-.61-.14-1.74-.95-1.74-1.53,0-6.06,4.36-10.26,9.47A23.52,23.52,0,0,0,346.79,54c-2,1.37-4.71,3.68-6.68,3.68-.76,0-1.48-.33-1.48-1.12,0-2.21,4.15-5.49,4.15-7a1.88,1.88,0,0,0-1.38-1.92c.43-.14,1.67-.61,1.67-1.17A2.92,2.92,0,0,0,340,44.2c-5,.13-15.77,5.11-17.51,10.42l-5.63,4-.1-.09,3.58-6.57a6.59,6.59,0,0,0,1-2.39c0-.8-.86-2.39-1.81-2.39-.76,0-1.34.8-1.81,1.31L312.58,54c-1.81,1.92-4.72,3-6.06,2.9-.43,0-.72-.09-.76-.47-.43-3.42,3.1-4.73,6.1-6.33l5.44-2.9c.62-.42,1.58-1.08,1.58-1.92,0-1-1.86-1.22-2.53-1.18-3.09.28-11,3.85-13.36,8.63l-.05-.23-2.86,2.34c-.86.7-3,2.34-4.1,2.34a.88.88,0,0,1-.86-.84c0-3.24,5.87-6.8,5.87-8.63a11.05,11.05,0,0,0-.72-2.53c-.29-.65-.57-.89-.76-.89-1.39,0-10.17,5.77-14,10.55-.2.23-.63.66-1,.66a.52.52,0,0,1-.52-.52c0-1.13,6-5.86,6-7.69,0-.28.24-.94-2.63-1a2.42,2.42,0,0,0-1.86.56,18.59,18.59,0,0,0-5,7.09h0c-2.05,1.36-4.77,3.75-6.77,3.75-.77,0-1.48-.33-1.48-1.12,0-2.21,4.15-5.49,4.15-7a1.89,1.89,0,0,0-1.38-1.92c.43-.14,1.67-.61,1.67-1.17a2.92,2.92,0,0,0-3.11-2.25c-5.53.14-17.94,6.14-17.75,12,.1,2.44,2.87,5.53,4.2,5.53,1.1,0,4.15-2.44,5.06-3.14l4.39-3.47.1.09c-.62,1.27-1.77,3.75-1.77,5.25A2.23,2.23,0,0,0,270.16,63c2,0,7.15-3.8,9.79-6.3,0,.15,0,.3,0,.44.05,1.59.57,4.55,2.67,4.55,1.29,0,3.06-2.3,3.77-3.19a37.79,37.79,0,0,1,7.35-7.17l.1.09c-1.53,2.16-4.11,5.25-4.11,8.06,0,1.6.86,3.1,2.68,3.1,3.05,0,7.19-4.42,9.87-7h0c0,2.07.91,5.49,3.58,5.49s7.64-4.27,9.35-6.14l.1.09L312,61.4c-2.62,1.88-9.88,7.78-9.88,11.16a1.08,1.08,0,0,0,1.1,1.12c1.86,0,6.06-3,11.07-10.82l8.07-5.94c.52,2.28,2.89,4.81,4.1,4.81s4.15-2.44,5.06-3.14l4.39-3.47.09.09c-.62,1.27-1.76,3.75-1.76,5.25A2.22,2.22,0,0,0,336.49,63c2.14,0,7.66-4.2,10.16-6.67,0,2.74.81,6,4.25,6,3.1,0,6.43-2.72,9-5.2.58,2.25,2.88,4.68,4.07,4.68s4.15-2.44,5.06-3.14l4.39-3.47.09.09c-.62,1.27-1.76,3.75-1.76,5.25A2.22,2.22,0,0,0,374,63c2,0,7.14-3.8,9.79-6.3a3.27,3.27,0,0,0,0,.44c.05,1.59.57,4.55,2.67,4.55,1.29,0,3.05-2.3,3.77-3.19a37.52,37.52,0,0,1,7.35-7.17l.09.09c-1.52,2.16-4.1,5.25-4.1,8.06,0,1.6.86,3.1,2.67,3.1,2.65,0,6.11-3.32,8.73-5.88.38,2.35,2.9,5.08,4.16,5.08,1.09,0,4.15-2.44,5-3.14l4.39-3.47.1.09c-.62,1.27-1.77,3.75-1.77,5.25A2.23,2.23,0,0,0,419.22,63c2.34,0,8.74-5,10.79-7.31ZM359.44,38.29c-.86,2.67-3.82,7.17-7.21,10.27l-.09-.1C354.38,43.64,357.1,39.42,359.44,38.29Zm-99.11,20c-.71.14-.91-.7-.95-.94,0-2.3,1.38-5.16,12.74-8.58l.09.1C262.76,58.26,261.29,58.12,260.33,58.31Zm66.33,0c-.72.14-.91-.7-1-.94,0-2.3,1.39-5.16,12.74-8.58l.1.1C329.09,58.26,327.61,58.12,326.66,58.31Zm37.55,0c-.72.14-.91-.7-1-.94,0-2.3,1.39-5.16,12.74-8.58l.1.1C366.64,58.26,365.16,58.12,364.21,58.31Zm45.18,0c-.71.14-.9-.7-.95-.94,0-2.3,1.38-5.16,12.74-8.58l.1.1C411.83,58.26,410.35,58.12,409.39,58.31Z"/></svg>